<svg width="503" height="61" viewBox="0 0 503 61" fill="none" xmlns="http://www.w3.org/2000/svg">
<rect width="503" height="61" rx="30.5" fill="white"/>
<path opacity="0.3" d="M31.98 37C31.86 37 31.758 36.964 31.674 36.892C31.602 36.808 31.566 36.706 31.566 36.586V24.832C31.566 24.7 31.602 24.598 31.674 24.526C31.758 24.442 31.86 24.4 31.98 24.4H39.414C39.534 24.4 39.63 24.442 39.702 24.526C39.786 24.598 39.828 24.7 39.828 24.832V25.516C39.828 25.636 39.792 25.738 39.72 25.822C39.648 25.894 39.546 25.93 39.414 25.93H33.294V29.872H39.018C39.138 29.872 39.234 29.914 39.306 29.998C39.39 30.07 39.432 30.172 39.432 30.304V30.97C39.432 31.09 39.39 31.192 39.306 31.276C39.234 31.348 39.138 31.384 39.018 31.384H33.294V35.47H39.558C39.69 35.47 39.792 35.506 39.864 35.578C39.936 35.65 39.972 35.752 39.972 35.884V36.586C39.972 36.706 39.93 36.808 39.846 36.892C39.774 36.964 39.678 37 39.558 37H31.98ZM42.662 37C42.542 37 42.44 36.964 42.356 36.892C42.284 36.808 42.248 36.706 42.248 36.586V28.054C42.248 27.934 42.284 27.838 42.356 27.766C42.44 27.682 42.542 27.64 42.662 27.64H43.508C43.628 27.64 43.724 27.682 43.796 27.766C43.88 27.838 43.922 27.934 43.922 28.054V28.846C44.27 28.402 44.678 28.06 45.146 27.82C45.626 27.58 46.22 27.46 46.928 27.46C48.08 27.46 48.974 27.832 49.61 28.576C50.258 29.308 50.582 30.286 50.582 31.51V36.586C50.582 36.706 50.54 36.808 50.456 36.892C50.384 36.964 50.288 37 50.168 37H49.268C49.148 37 49.046 36.964 48.962 36.892C48.89 36.808 48.854 36.706 48.854 36.586V31.6C48.854 30.748 48.644 30.088 48.224 29.62C47.816 29.152 47.222 28.918 46.442 28.918C45.686 28.918 45.086 29.158 44.642 29.638C44.198 30.106 43.976 30.76 43.976 31.6V36.586C43.976 36.706 43.934 36.808 43.85 36.892C43.778 36.964 43.682 37 43.562 37H42.662ZM56.695 37C54.799 37 53.851 35.944 53.851 33.832V29.08H52.447C52.327 29.08 52.225 29.044 52.141 28.972C52.069 28.888 52.033 28.786 52.033 28.666V28.054C52.033 27.934 52.069 27.838 52.141 27.766C52.225 27.682 52.327 27.64 52.447 27.64H53.851V24.634C53.851 24.514 53.887 24.418 53.959 24.346C54.043 24.262 54.145 24.22 54.265 24.22H55.111C55.231 24.22 55.327 24.262 55.399 24.346C55.483 24.418 55.525 24.514 55.525 24.634V27.64H57.757C57.877 27.64 57.973 27.682 58.045 27.766C58.129 27.838 58.171 27.934 58.171 28.054V28.666C58.171 28.786 58.129 28.888 58.045 28.972C57.973 29.044 57.877 29.08 57.757 29.08H55.525V33.706C55.525 34.306 55.627 34.762 55.831 35.074C56.035 35.374 56.371 35.524 56.839 35.524H57.937C58.057 35.524 58.153 35.566 58.225 35.65C58.309 35.722 58.351 35.818 58.351 35.938V36.586C58.351 36.706 58.309 36.808 58.225 36.892C58.153 36.964 58.057 37 57.937 37H56.695ZM63.8162 37.18C62.5802 37.18 61.5902 36.802 60.8462 36.046C60.1142 35.278 59.7122 34.234 59.6402 32.914L59.6222 32.302L59.6402 31.708C59.7242 30.412 60.1322 29.38 60.8642 28.612C61.6082 27.844 62.5862 27.46 63.7982 27.46C65.1302 27.46 66.1622 27.886 66.8942 28.738C67.6262 29.578 67.9922 30.718 67.9922 32.158V32.464C67.9922 32.584 67.9502 32.686 67.8662 32.77C67.7942 32.842 67.6982 32.878 67.5782 32.878H61.3502V33.04C61.3862 33.82 61.6202 34.486 62.0522 35.038C62.4962 35.578 63.0782 35.848 63.7982 35.848C64.3502 35.848 64.8002 35.74 65.1482 35.524C65.5082 35.296 65.7722 35.062 65.9402 34.822C66.0482 34.678 66.1262 34.594 66.1742 34.57C66.2342 34.534 66.3362 34.516 66.4802 34.516H67.3622C67.4702 34.516 67.5602 34.546 67.6322 34.606C67.7042 34.666 67.7402 34.75 67.7402 34.858C67.7402 35.122 67.5722 35.44 67.2362 35.812C66.9122 36.184 66.4502 36.508 65.8502 36.784C65.2622 37.048 64.5842 37.18 63.8162 37.18ZM66.2822 31.636V31.582C66.2822 30.754 66.0542 30.082 65.5982 29.566C65.1542 29.038 64.5542 28.774 63.7982 28.774C63.0422 28.774 62.4422 29.038 61.9982 29.566C61.5662 30.082 61.3502 30.754 61.3502 31.582V31.636H66.2822ZM70.5585 37C70.4385 37 70.3365 36.964 70.2525 36.892C70.1805 36.808 70.1445 36.706 70.1445 36.586V28.072C70.1445 27.952 70.1805 27.85 70.2525 27.766C70.3365 27.682 70.4385 27.64 70.5585 27.64H71.3865C71.5065 27.64 71.6085 27.682 71.6925 27.766C71.7765 27.85 71.8185 27.952 71.8185 28.072V28.864C72.3105 28.048 73.1505 27.64 74.3385 27.64H75.0405C75.1605 27.64 75.2565 27.682 75.3285 27.766C75.4125 27.838 75.4545 27.934 75.4545 28.054V28.792C75.4545 28.912 75.4125 29.008 75.3285 29.08C75.2565 29.152 75.1605 29.188 75.0405 29.188H73.9605C73.3125 29.188 72.8025 29.38 72.4305 29.764C72.0585 30.136 71.8725 30.646 71.8725 31.294V36.586C71.8725 36.706 71.8305 36.808 71.7465 36.892C71.6625 36.964 71.5605 37 71.4405 37H70.5585ZM84.4593 37C84.3393 37 84.2373 36.964 84.1533 36.892C84.0813 36.808 84.0453 36.706 84.0453 36.586V32.338L79.7073 24.994C79.7073 24.97 79.7013 24.934 79.6893 24.886C79.6653 24.838 79.6533 24.796 79.6533 24.76C79.6533 24.664 79.6893 24.58 79.7613 24.508C79.8333 24.436 79.9173 24.4 80.0133 24.4H80.9493C81.1533 24.4 81.3093 24.502 81.4173 24.706L84.9273 30.538L88.4373 24.706C88.5693 24.502 88.7313 24.4 88.9233 24.4H89.8413C89.9493 24.4 90.0393 24.436 90.1113 24.508C90.1833 24.58 90.2193 24.664 90.2193 24.76C90.2193 24.82 90.1953 24.898 90.1473 24.994L85.8273 32.338V36.586C85.8273 36.706 85.7853 36.808 85.7013 36.892C85.6173 36.964 85.5153 37 85.3953 37H84.4593ZM94.4219 37.18C93.1019 37.18 92.0759 36.808 91.3439 36.064C90.6239 35.32 90.2399 34.33 90.1919 33.094L90.1739 32.32L90.1919 31.546C90.2399 30.322 90.6299 29.338 91.3619 28.594C92.0939 27.838 93.1139 27.46 94.4219 27.46C95.7299 27.46 96.7499 27.838 97.4819 28.594C98.2139 29.338 98.6039 30.322 98.6519 31.546C98.6639 31.678 98.6699 31.936 98.6699 32.32C98.6699 32.704 98.6639 32.962 98.6519 33.094C98.6039 34.33 98.2139 35.32 97.4819 36.064C96.7619 36.808 95.7419 37.18 94.4219 37.18ZM94.4219 35.794C95.1779 35.794 95.7719 35.554 96.2039 35.074C96.6479 34.594 96.8879 33.904 96.9239 33.004C96.9359 32.884 96.9419 32.656 96.9419 32.32C96.9419 31.984 96.9359 31.756 96.9239 31.636C96.8879 30.736 96.6479 30.046 96.2039 29.566C95.7719 29.086 95.1779 28.846 94.4219 28.846C93.6659 28.846 93.0659 29.086 92.6219 29.566C92.1779 30.046 91.9439 30.736 91.9199 31.636L91.9019 32.32L91.9199 33.004C91.9439 33.904 92.1779 34.594 92.6219 35.074C93.0659 35.554 93.6659 35.794 94.4219 35.794ZM104.416 37.18C103.276 37.18 102.394 36.814 101.77 36.082C101.146 35.338 100.834 34.354 100.834 33.13V28.054C100.834 27.934 100.87 27.838 100.942 27.766C101.026 27.682 101.128 27.64 101.248 27.64H102.148C102.268 27.64 102.364 27.682 102.436 27.766C102.52 27.838 102.562 27.934 102.562 28.054V33.04C102.562 34.828 103.342 35.722 104.902 35.722C105.658 35.722 106.258 35.488 106.702 35.02C107.146 34.54 107.368 33.88 107.368 33.04V28.054C107.368 27.934 107.404 27.838 107.476 27.766C107.56 27.682 107.662 27.64 107.782 27.64H108.682C108.802 27.64 108.898 27.682 108.97 27.766C109.042 27.838 109.078 27.934 109.078 28.054V36.586C109.078 36.706 109.042 36.808 108.97 36.892C108.898 36.964 108.802 37 108.682 37H107.836C107.716 37 107.614 36.964 107.53 36.892C107.458 36.808 107.422 36.706 107.422 36.586V35.794C107.086 36.25 106.678 36.598 106.198 36.838C105.718 37.066 105.124 37.18 104.416 37.18ZM112.166 37C112.046 37 111.944 36.964 111.86 36.892C111.788 36.808 111.752 36.706 111.752 36.586V28.072C111.752 27.952 111.788 27.85 111.86 27.766C111.944 27.682 112.046 27.64 112.166 27.64H112.994C113.114 27.64 113.216 27.682 113.3 27.766C113.384 27.85 113.426 27.952 113.426 28.072V28.864C113.918 28.048 114.758 27.64 115.946 27.64H116.648C116.768 27.64 116.864 27.682 116.936 27.766C117.02 27.838 117.062 27.934 117.062 28.054V28.792C117.062 28.912 117.02 29.008 116.936 29.08C116.864 29.152 116.768 29.188 116.648 29.188H115.568C114.92 29.188 114.41 29.38 114.038 29.764C113.666 30.136 113.48 30.646 113.48 31.294V36.586C113.48 36.706 113.438 36.808 113.354 36.892C113.27 36.964 113.168 37 113.048 37H112.166ZM126.324 37.18C125.088 37.18 124.098 36.802 123.354 36.046C122.622 35.278 122.22 34.234 122.148 32.914L122.13 32.302L122.148 31.708C122.232 30.412 122.64 29.38 123.372 28.612C124.116 27.844 125.094 27.46 126.306 27.46C127.638 27.46 128.67 27.886 129.402 28.738C130.134 29.578 130.5 30.718 130.5 32.158V32.464C130.5 32.584 130.458 32.686 130.374 32.77C130.302 32.842 130.206 32.878 130.086 32.878H123.858V33.04C123.894 33.82 124.128 34.486 124.56 35.038C125.004 35.578 125.586 35.848 126.306 35.848C126.858 35.848 127.308 35.74 127.656 35.524C128.016 35.296 128.28 35.062 128.448 34.822C128.556 34.678 128.634 34.594 128.682 34.57C128.742 34.534 128.844 34.516 128.988 34.516H129.87C129.978 34.516 130.068 34.546 130.14 34.606C130.212 34.666 130.248 34.75 130.248 34.858C130.248 35.122 130.08 35.44 129.744 35.812C129.42 36.184 128.958 36.508 128.358 36.784C127.77 37.048 127.092 37.18 126.324 37.18ZM128.79 31.636V31.582C128.79 30.754 128.562 30.082 128.106 29.566C127.662 29.038 127.062 28.774 126.306 28.774C125.55 28.774 124.95 29.038 124.506 29.566C124.074 30.082 123.858 30.754 123.858 31.582V31.636H128.79ZM133.066 37C132.946 37 132.844 36.964 132.76 36.892C132.688 36.808 132.652 36.706 132.652 36.586V28.054C132.652 27.934 132.688 27.838 132.76 27.766C132.844 27.682 132.946 27.64 133.066 27.64H133.876C133.996 27.64 134.092 27.682 134.164 27.766C134.248 27.838 134.29 27.934 134.29 28.054V28.684C134.914 27.868 135.784 27.46 136.9 27.46C138.232 27.46 139.174 28.012 139.726 29.116C140.014 28.612 140.422 28.21 140.95 27.91C141.478 27.61 142.072 27.46 142.732 27.46C143.716 27.46 144.52 27.796 145.144 28.468C145.768 29.14 146.08 30.112 146.08 31.384V36.586C146.08 36.706 146.038 36.808 145.954 36.892C145.882 36.964 145.786 37 145.666 37H144.82C144.7 37 144.598 36.964 144.514 36.892C144.442 36.808 144.406 36.706 144.406 36.586V31.546C144.406 30.61 144.208 29.938 143.812 29.53C143.428 29.122 142.918 28.918 142.282 28.918C141.718 28.918 141.232 29.128 140.824 29.548C140.416 29.956 140.212 30.622 140.212 31.546V36.586C140.212 36.706 140.17 36.808 140.086 36.892C140.014 36.964 139.918 37 139.798 37H138.952C138.832 37 138.73 36.964 138.646 36.892C138.574 36.808 138.538 36.706 138.538 36.586V31.546C138.538 30.61 138.334 29.938 137.926 29.53C137.53 29.122 137.026 28.918 136.414 28.918C135.85 28.918 135.364 29.128 134.956 29.548C134.548 29.956 134.344 30.616 134.344 31.528V36.586C134.344 36.706 134.302 36.808 134.218 36.892C134.146 36.964 134.05 37 133.93 37H133.066ZM151.258 37.18C150.67 37.18 150.124 37.06 149.62 36.82C149.116 36.58 148.714 36.256 148.414 35.848C148.126 35.428 147.982 34.966 147.982 34.462C147.982 33.67 148.306 33.022 148.954 32.518C149.614 32.002 150.502 31.666 151.618 31.51L154.3 31.132V30.61C154.3 29.386 153.598 28.774 152.194 28.774C151.666 28.774 151.234 28.888 150.898 29.116C150.562 29.332 150.31 29.59 150.142 29.89C150.106 29.998 150.058 30.076 149.998 30.124C149.95 30.172 149.878 30.196 149.782 30.196H149.008C148.9 30.196 148.804 30.16 148.72 30.088C148.648 30.004 148.612 29.908 148.612 29.8C148.624 29.512 148.756 29.188 149.008 28.828C149.272 28.456 149.674 28.138 150.214 27.874C150.754 27.598 151.42 27.46 152.212 27.46C153.556 27.46 154.522 27.778 155.11 28.414C155.698 29.038 155.992 29.818 155.992 30.754V36.586C155.992 36.706 155.95 36.808 155.866 36.892C155.794 36.964 155.698 37 155.578 37H154.75C154.63 37 154.528 36.964 154.444 36.892C154.372 36.808 154.336 36.706 154.336 36.586V35.812C154.072 36.196 153.688 36.52 153.184 36.784C152.68 37.048 152.038 37.18 151.258 37.18ZM151.636 35.83C152.416 35.83 153.052 35.578 153.544 35.074C154.048 34.558 154.3 33.82 154.3 32.86V32.356L152.212 32.662C151.36 32.782 150.718 32.986 150.286 33.274C149.854 33.55 149.638 33.904 149.638 34.336C149.638 34.816 149.836 35.188 150.232 35.452C150.628 35.704 151.096 35.83 151.636 35.83ZM158.85 25.894C158.73 25.894 158.628 25.858 158.544 25.786C158.472 25.702 158.436 25.6 158.436 25.48V24.508C158.436 24.388 158.472 24.286 158.544 24.202C158.628 24.118 158.73 24.076 158.85 24.076H159.984C160.104 24.076 160.206 24.118 160.29 24.202C160.374 24.286 160.416 24.388 160.416 24.508V25.48C160.416 25.6 160.374 25.702 160.29 25.786C160.206 25.858 160.104 25.894 159.984 25.894H158.85ZM158.994 37C158.874 37 158.772 36.964 158.688 36.892C158.616 36.808 158.58 36.706 158.58 36.586V28.054C158.58 27.934 158.616 27.838 158.688 27.766C158.772 27.682 158.874 27.64 158.994 27.64H159.858C159.978 27.64 160.074 27.682 160.146 27.766C160.23 27.838 160.272 27.934 160.272 28.054V36.586C160.272 36.706 160.23 36.808 160.146 36.892C160.074 36.964 159.978 37 159.858 37H158.994ZM163.371 37C163.251 37 163.149 36.964 163.065 36.892C162.993 36.808 162.957 36.706 162.957 36.586V24.634C162.957 24.514 162.993 24.418 163.065 24.346C163.149 24.262 163.251 24.22 163.371 24.22H164.217C164.337 24.22 164.433 24.262 164.505 24.346C164.589 24.418 164.631 24.514 164.631 24.634V36.586C164.631 36.706 164.589 36.808 164.505 36.892C164.433 36.964 164.337 37 164.217 37H163.371ZM174.338 37.18C173.75 37.18 173.204 37.06 172.7 36.82C172.196 36.58 171.794 36.256 171.494 35.848C171.206 35.428 171.062 34.966 171.062 34.462C171.062 33.67 171.386 33.022 172.034 32.518C172.694 32.002 173.582 31.666 174.698 31.51L177.38 31.132V30.61C177.38 29.386 176.678 28.774 175.274 28.774C174.746 28.774 174.314 28.888 173.978 29.116C173.642 29.332 173.39 29.59 173.222 29.89C173.186 29.998 173.138 30.076 173.078 30.124C173.03 30.172 172.958 30.196 172.862 30.196H172.088C171.98 30.196 171.884 30.16 171.8 30.088C171.728 30.004 171.692 29.908 171.692 29.8C171.704 29.512 171.836 29.188 172.088 28.828C172.352 28.456 172.754 28.138 173.294 27.874C173.834 27.598 174.5 27.46 175.292 27.46C176.636 27.46 177.602 27.778 178.19 28.414C178.778 29.038 179.072 29.818 179.072 30.754V36.586C179.072 36.706 179.03 36.808 178.946 36.892C178.874 36.964 178.778 37 178.658 37H177.83C177.71 37 177.608 36.964 177.524 36.892C177.452 36.808 177.416 36.706 177.416 36.586V35.812C177.152 36.196 176.768 36.52 176.264 36.784C175.76 37.048 175.118 37.18 174.338 37.18ZM174.716 35.83C175.496 35.83 176.132 35.578 176.624 35.074C177.128 34.558 177.38 33.82 177.38 32.86V32.356L175.292 32.662C174.44 32.782 173.798 32.986 173.366 33.274C172.934 33.55 172.718 33.904 172.718 34.336C172.718 34.816 172.916 35.188 173.312 35.452C173.708 35.704 174.176 35.83 174.716 35.83ZM185.08 37.18C183.832 37.18 182.89 36.772 182.254 35.956C181.618 35.14 181.282 34.108 181.246 32.86L181.228 32.32L181.246 31.78C181.282 30.544 181.618 29.518 182.254 28.702C182.89 27.874 183.832 27.46 185.08 27.46C186.316 27.46 187.288 27.898 187.996 28.774V24.634C187.996 24.514 188.032 24.418 188.104 24.346C188.188 24.262 188.29 24.22 188.41 24.22H189.274C189.394 24.22 189.49 24.262 189.562 24.346C189.646 24.418 189.688 24.514 189.688 24.634V36.586C189.688 36.706 189.646 36.808 189.562 36.892C189.49 36.964 189.394 37 189.274 37H188.464C188.344 37 188.242 36.964 188.158 36.892C188.086 36.808 188.05 36.706 188.05 36.586V35.83C187.354 36.73 186.364 37.18 185.08 37.18ZM185.458 35.722C186.286 35.722 186.904 35.452 187.312 34.912C187.732 34.36 187.96 33.706 187.996 32.95C188.008 32.818 188.014 32.59 188.014 32.266C188.014 31.93 188.008 31.696 187.996 31.564C187.972 30.856 187.744 30.238 187.312 29.71C186.88 29.182 186.262 28.918 185.458 28.918C184.606 28.918 183.982 29.182 183.586 29.71C183.202 30.238 182.992 30.934 182.956 31.798L182.938 32.32C182.938 34.588 183.778 35.722 185.458 35.722ZM195.785 37.18C194.537 37.18 193.595 36.772 192.959 35.956C192.323 35.14 191.987 34.108 191.951 32.86L191.933 32.32L191.951 31.78C191.987 30.544 192.323 29.518 192.959 28.702C193.595 27.874 194.537 27.46 195.785 27.46C197.021 27.46 197.993 27.898 198.701 28.774V24.634C198.701 24.514 198.737 24.418 198.809 24.346C198.893 24.262 198.995 24.22 199.115 24.22H199.979C200.099 24.22 200.195 24.262 200.267 24.346C200.351 24.418 200.393 24.514 200.393 24.634V36.586C200.393 36.706 200.351 36.808 200.267 36.892C200.195 36.964 200.099 37 199.979 37H199.169C199.049 37 198.947 36.964 198.863 36.892C198.791 36.808 198.755 36.706 198.755 36.586V35.83C198.059 36.73 197.069 37.18 195.785 37.18ZM196.163 35.722C196.991 35.722 197.609 35.452 198.017 34.912C198.437 34.36 198.665 33.706 198.701 32.95C198.713 32.818 198.719 32.59 198.719 32.266C198.719 31.93 198.713 31.696 198.701 31.564C198.677 30.856 198.449 30.238 198.017 29.71C197.585 29.182 196.967 28.918 196.163 28.918C195.311 28.918 194.687 29.182 194.291 29.71C193.907 30.238 193.697 30.934 193.661 31.798L193.643 32.32C193.643 34.588 194.483 35.722 196.163 35.722ZM203.484 37C203.364 37 203.262 36.964 203.178 36.892C203.106 36.808 203.07 36.706 203.07 36.586V28.072C203.07 27.952 203.106 27.85 203.178 27.766C203.262 27.682 203.364 27.64 203.484 27.64H204.312C204.432 27.64 204.534 27.682 204.618 27.766C204.702 27.85 204.744 27.952 204.744 28.072V28.864C205.236 28.048 206.076 27.64 207.264 27.64H207.966C208.086 27.64 208.182 27.682 208.254 27.766C208.338 27.838 208.38 27.934 208.38 28.054V28.792C208.38 28.912 208.338 29.008 208.254 29.08C208.182 29.152 208.086 29.188 207.966 29.188H206.886C206.238 29.188 205.728 29.38 205.356 29.764C204.984 30.136 204.798 30.646 204.798 31.294V36.586C204.798 36.706 204.756 36.808 204.672 36.892C204.588 36.964 204.486 37 204.366 37H203.484ZM213.476 37.18C212.24 37.18 211.25 36.802 210.506 36.046C209.774 35.278 209.372 34.234 209.3 32.914L209.282 32.302L209.3 31.708C209.384 30.412 209.792 29.38 210.524 28.612C211.268 27.844 212.246 27.46 213.458 27.46C214.79 27.46 215.822 27.886 216.554 28.738C217.286 29.578 217.652 30.718 217.652 32.158V32.464C217.652 32.584 217.61 32.686 217.526 32.77C217.454 32.842 217.358 32.878 217.238 32.878H211.01V33.04C211.046 33.82 211.28 34.486 211.712 35.038C212.156 35.578 212.738 35.848 213.458 35.848C214.01 35.848 214.46 35.74 214.808 35.524C215.168 35.296 215.432 35.062 215.6 34.822C215.708 34.678 215.786 34.594 215.834 34.57C215.894 34.534 215.996 34.516 216.14 34.516H217.022C217.13 34.516 217.22 34.546 217.292 34.606C217.364 34.666 217.4 34.75 217.4 34.858C217.4 35.122 217.232 35.44 216.896 35.812C216.572 36.184 216.11 36.508 215.51 36.784C214.922 37.048 214.244 37.18 213.476 37.18ZM215.942 31.636V31.582C215.942 30.754 215.714 30.082 215.258 29.566C214.814 29.038 214.214 28.774 213.458 28.774C212.702 28.774 212.102 29.038 211.658 29.566C211.226 30.082 211.01 30.754 211.01 31.582V31.636H215.942ZM223.045 37.18C222.205 37.18 221.497 37.048 220.921 36.784C220.357 36.508 219.931 36.196 219.643 35.848C219.367 35.5 219.229 35.212 219.229 34.984C219.229 34.864 219.271 34.774 219.355 34.714C219.451 34.642 219.547 34.606 219.643 34.606H220.453C220.573 34.606 220.681 34.666 220.777 34.786C221.065 35.122 221.377 35.386 221.713 35.578C222.049 35.77 222.499 35.866 223.063 35.866C223.687 35.866 224.191 35.746 224.575 35.506C224.971 35.254 225.169 34.912 225.169 34.48C225.169 34.192 225.085 33.958 224.917 33.778C224.761 33.586 224.485 33.424 224.089 33.292C223.705 33.148 223.129 32.992 222.361 32.824C221.317 32.596 220.573 32.266 220.129 31.834C219.697 31.402 219.481 30.844 219.481 30.16C219.481 29.704 219.613 29.272 219.877 28.864C220.153 28.444 220.549 28.108 221.065 27.856C221.593 27.592 222.223 27.46 222.955 27.46C223.723 27.46 224.377 27.586 224.917 27.838C225.457 28.09 225.859 28.39 226.123 28.738C226.399 29.074 226.537 29.356 226.537 29.584C226.537 29.692 226.495 29.782 226.411 29.854C226.339 29.926 226.249 29.962 226.141 29.962H225.385C225.241 29.962 225.121 29.902 225.025 29.782C224.833 29.554 224.665 29.38 224.521 29.26C224.389 29.128 224.191 29.014 223.927 28.918C223.675 28.822 223.351 28.774 222.955 28.774C222.379 28.774 221.935 28.9 221.623 29.152C221.311 29.392 221.155 29.71 221.155 30.106C221.155 30.358 221.221 30.574 221.353 30.754C221.485 30.922 221.737 31.078 222.109 31.222C222.493 31.366 223.045 31.516 223.765 31.672C224.905 31.912 225.709 32.26 226.177 32.716C226.657 33.16 226.897 33.73 226.897 34.426C226.897 34.942 226.747 35.41 226.447 35.83C226.147 36.25 225.703 36.58 225.115 36.82C224.539 37.06 223.849 37.18 223.045 37.18ZM232.22 37.18C231.38 37.18 230.672 37.048 230.096 36.784C229.532 36.508 229.106 36.196 228.818 35.848C228.542 35.5 228.404 35.212 228.404 34.984C228.404 34.864 228.446 34.774 228.53 34.714C228.626 34.642 228.722 34.606 228.818 34.606H229.628C229.748 34.606 229.856 34.666 229.952 34.786C230.24 35.122 230.552 35.386 230.888 35.578C231.224 35.77 231.674 35.866 232.238 35.866C232.862 35.866 233.366 35.746 233.75 35.506C234.146 35.254 234.344 34.912 234.344 34.48C234.344 34.192 234.26 33.958 234.092 33.778C233.936 33.586 233.66 33.424 233.264 33.292C232.88 33.148 232.304 32.992 231.536 32.824C230.492 32.596 229.748 32.266 229.304 31.834C228.872 31.402 228.656 30.844 228.656 30.16C228.656 29.704 228.788 29.272 229.052 28.864C229.328 28.444 229.724 28.108 230.24 27.856C230.768 27.592 231.398 27.46 232.13 27.46C232.898 27.46 233.552 27.586 234.092 27.838C234.632 28.09 235.034 28.39 235.298 28.738C235.574 29.074 235.712 29.356 235.712 29.584C235.712 29.692 235.67 29.782 235.586 29.854C235.514 29.926 235.424 29.962 235.316 29.962H234.56C234.416 29.962 234.296 29.902 234.2 29.782C234.008 29.554 233.84 29.38 233.696 29.26C233.564 29.128 233.366 29.014 233.102 28.918C232.85 28.822 232.526 28.774 232.13 28.774C231.554 28.774 231.11 28.9 230.798 29.152C230.486 29.392 230.33 29.71 230.33 30.106C230.33 30.358 230.396 30.574 230.528 30.754C230.66 30.922 230.912 31.078 231.284 31.222C231.668 31.366 232.22 31.516 232.94 31.672C234.08 31.912 234.884 32.26 235.352 32.716C235.832 33.16 236.072 33.73 236.072 34.426C236.072 34.942 235.922 35.41 235.622 35.83C235.322 36.25 234.878 36.58 234.29 36.82C233.714 37.06 233.024 37.18 232.22 37.18Z" fill="#180202"/>
</svg>
