<svg width="167" height="61" viewBox="0 0 167 61" fill="none" xmlns="http://www.w3.org/2000/svg">
<rect width="167" height="61" rx="30.5" fill="#FF4948"/>
<path d="M37.062 38.22C35.7567 38.22 34.6347 38.022 33.696 37.626C32.7573 37.23 32.046 36.7093 31.562 36.064C31.078 35.4187 30.8213 34.722 30.792 33.974C30.792 33.842 30.836 33.732 30.924 33.644C31.012 33.556 31.122 33.512 31.254 33.512H33.212C33.388 33.512 33.52 33.5487 33.608 33.622C33.7107 33.6807 33.806 33.7833 33.894 33.93C34.0407 34.4287 34.378 34.8467 34.906 35.184C35.434 35.5213 36.1527 35.69 37.062 35.69C38.1033 35.69 38.888 35.5213 39.416 35.184C39.944 34.832 40.208 34.348 40.208 33.732C40.208 33.3213 40.0687 32.984 39.79 32.72C39.526 32.456 39.1227 32.2287 38.58 32.038C38.052 31.8473 37.26 31.6127 36.204 31.334C34.4733 30.9233 33.2047 30.3807 32.398 29.706C31.606 29.0167 31.21 28.0413 31.21 26.78C31.21 25.9293 31.4373 25.174 31.892 24.514C32.3613 23.854 33.0287 23.3333 33.894 22.952C34.774 22.5707 35.7933 22.38 36.952 22.38C38.1547 22.38 39.196 22.5927 40.076 23.018C40.956 23.4433 41.6233 23.9787 42.078 24.624C42.5473 25.2547 42.7967 25.8853 42.826 26.516C42.826 26.648 42.782 26.758 42.694 26.846C42.606 26.934 42.496 26.978 42.364 26.978H40.318C40.01 26.978 39.7973 26.8387 39.68 26.56C39.592 26.0907 39.2987 25.702 38.8 25.394C38.3013 25.0713 37.6853 24.91 36.952 24.91C36.1307 24.91 35.4853 25.064 35.016 25.372C34.5467 25.68 34.312 26.1273 34.312 26.714C34.312 27.1247 34.4293 27.462 34.664 27.726C34.8987 27.99 35.2653 28.2247 35.764 28.43C36.2773 28.6353 37.0107 28.8627 37.964 29.112C39.2547 29.4053 40.2813 29.7353 41.044 30.102C41.8213 30.4687 42.3933 30.9307 42.76 31.488C43.1267 32.0453 43.31 32.7567 43.31 33.622C43.31 34.5607 43.046 35.382 42.518 36.086C42.0047 36.7753 41.2713 37.3033 40.318 37.67C39.3793 38.0367 38.294 38.22 37.062 38.22ZM49.8132 38.22C48.4639 38.22 47.4006 37.78 46.6232 36.9C45.8459 36.0053 45.4572 34.7953 45.4572 33.27V27.088C45.4572 26.9413 45.5086 26.8167 45.6112 26.714C45.7139 26.6113 45.8386 26.56 45.9852 26.56H47.9212C48.0826 26.56 48.2072 26.6113 48.2952 26.714C48.3979 26.802 48.4492 26.9267 48.4492 27.088V33.138C48.4492 34.9567 49.2486 35.866 50.8472 35.866C51.6099 35.866 52.2112 35.624 52.6512 35.14C53.1059 34.656 53.3332 33.9887 53.3332 33.138V27.088C53.3332 26.9413 53.3846 26.8167 53.4872 26.714C53.5899 26.6113 53.7146 26.56 53.8612 26.56H55.7972C55.9586 26.56 56.0832 26.6113 56.1712 26.714C56.2739 26.802 56.3252 26.9267 56.3252 27.088V37.472C56.3252 37.6187 56.2739 37.7433 56.1712 37.846C56.0832 37.9487 55.9586 38 55.7972 38H54.0152C53.8686 38 53.7439 37.9487 53.6412 37.846C53.5386 37.7433 53.4872 37.6187 53.4872 37.472V36.57C52.6659 37.67 51.4412 38.22 49.8132 38.22ZM65.5673 38.22C64.0566 38.22 62.8833 37.6993 62.0473 36.658V37.472C62.0473 37.6187 61.996 37.7433 61.8933 37.846C61.8053 37.9487 61.6806 38 61.5193 38H59.7813C59.6346 38 59.51 37.9487 59.4073 37.846C59.3046 37.7433 59.2533 37.6187 59.2533 37.472V22.908C59.2533 22.7467 59.3046 22.622 59.4073 22.534C59.51 22.4313 59.6346 22.38 59.7813 22.38H61.6513C61.8126 22.38 61.9373 22.4313 62.0253 22.534C62.128 22.622 62.1793 22.7467 62.1793 22.908V27.792C63.0153 26.824 64.1446 26.34 65.5673 26.34C67.0486 26.34 68.1853 26.824 68.9773 27.792C69.7693 28.76 70.1946 30.014 70.2533 31.554C70.268 31.73 70.2753 31.9647 70.2753 32.258C70.2753 32.566 70.268 32.808 70.2533 32.984C70.1946 34.568 69.7693 35.8367 68.9773 36.79C68.1853 37.7433 67.0486 38.22 65.5673 38.22ZM64.7533 35.866C66.3373 35.866 67.1806 34.8907 67.2833 32.94C67.298 32.7933 67.3053 32.5733 67.3053 32.28C67.3053 31.9867 67.298 31.7667 67.2833 31.62C67.1806 29.6693 66.3373 28.694 64.7533 28.694C63.932 28.694 63.3013 28.958 62.8613 29.486C62.436 29.9993 62.2086 30.6227 62.1793 31.356L62.1573 32.192L62.1793 33.05C62.2233 33.842 62.4506 34.5093 62.8613 35.052C63.272 35.5947 63.9026 35.866 64.7533 35.866ZM77.0575 38.22C75.9575 38.22 75.0335 38.0587 74.2855 37.736C73.5375 37.3987 72.9802 37.01 72.6135 36.57C72.2615 36.1153 72.0855 35.7267 72.0855 35.404C72.0855 35.2573 72.1368 35.14 72.2395 35.052C72.3422 34.964 72.4595 34.92 72.5915 34.92H74.3295C74.4615 34.92 74.5715 34.9713 74.6595 35.074C74.7182 35.118 74.8722 35.25 75.1215 35.47C75.3708 35.7047 75.6642 35.888 76.0015 36.02C76.3388 36.152 76.7128 36.218 77.1235 36.218C77.7102 36.218 78.1942 36.1007 78.5755 35.866C78.9568 35.6313 79.1475 35.3087 79.1475 34.898C79.1475 34.59 79.0595 34.3407 78.8835 34.15C78.7222 33.9593 78.4215 33.7907 77.9815 33.644C77.5415 33.4827 76.8888 33.314 76.0235 33.138C74.7768 32.874 73.8528 32.4707 73.2515 31.928C72.6648 31.3853 72.3715 30.6667 72.3715 29.772C72.3715 29.1853 72.5475 28.6353 72.8995 28.122C73.2515 27.594 73.7722 27.1687 74.4615 26.846C75.1655 26.5087 76.0015 26.34 76.9695 26.34C77.9522 26.34 78.8028 26.5013 79.5215 26.824C80.2402 27.132 80.7828 27.506 81.1495 27.946C81.5308 28.3713 81.7215 28.7527 81.7215 29.09C81.7215 29.222 81.6702 29.3393 81.5675 29.442C81.4795 29.53 81.3695 29.574 81.2375 29.574H79.6095C79.4922 29.574 79.3675 29.5227 79.2355 29.42C79.1328 29.3467 78.9715 29.2073 78.7515 29.002C78.5315 28.7967 78.2748 28.6353 77.9815 28.518C77.6882 28.4007 77.3435 28.342 76.9475 28.342C76.4048 28.342 75.9795 28.4593 75.6715 28.694C75.3782 28.9287 75.2315 29.2367 75.2315 29.618C75.2315 29.8967 75.3048 30.124 75.4515 30.3C75.5982 30.476 75.8842 30.6447 76.3095 30.806C76.7348 30.9673 77.3728 31.1287 78.2235 31.29C79.6315 31.5687 80.6362 32.0013 81.2375 32.588C81.8535 33.1747 82.1615 33.8933 82.1615 34.744C82.1615 35.7707 81.7142 36.6067 80.8195 37.252C79.9248 37.8973 78.6708 38.22 77.0575 38.22ZM89.3825 38.22C87.7691 38.22 86.4785 37.7727 85.5105 36.878C84.5571 35.9833 84.0511 34.744 83.9925 33.16L83.9705 32.28L83.9925 31.4C84.0511 29.816 84.5571 28.5767 85.5105 27.682C86.4785 26.7873 87.7691 26.34 89.3825 26.34C90.5265 26.34 91.4945 26.5453 92.2865 26.956C93.0931 27.3667 93.6871 27.8727 94.0685 28.474C94.4645 29.0607 94.6771 29.618 94.7065 30.146C94.7211 30.2927 94.6698 30.4173 94.5525 30.52C94.4498 30.6227 94.3251 30.674 94.1785 30.674H92.2425C92.0958 30.674 91.9785 30.6447 91.8905 30.586C91.8171 30.5127 91.7438 30.3953 91.6705 30.234C91.4505 29.662 91.1571 29.2513 90.7905 29.002C90.4385 28.7527 89.9838 28.628 89.4265 28.628C88.6785 28.628 88.0918 28.87 87.6665 29.354C87.2411 29.8233 87.0138 30.542 86.9845 31.51L86.9625 32.324L86.9845 33.05C87.0431 34.9713 87.8571 35.932 89.4265 35.932C89.9985 35.932 90.4605 35.8073 90.8125 35.558C91.1645 35.3087 91.4505 34.898 91.6705 34.326C91.7438 34.1647 91.8171 34.0547 91.8905 33.996C91.9785 33.9227 92.0958 33.886 92.2425 33.886H94.1785C94.3251 33.886 94.4498 33.9373 94.5525 34.04C94.6698 34.1427 94.7211 34.2673 94.7065 34.414C94.6771 34.9273 94.4718 35.4773 94.0905 36.064C93.7091 36.6507 93.1225 37.1567 92.3305 37.582C91.5385 38.0073 90.5558 38.22 89.3825 38.22ZM97.5288 38C97.3822 38 97.2575 37.9487 97.1548 37.846C97.0522 37.7433 97.0008 37.6187 97.0008 37.472V27.11C97.0008 26.9633 97.0522 26.8387 97.1548 26.736C97.2575 26.6187 97.3822 26.56 97.5288 26.56H99.3108C99.4722 26.56 99.6042 26.6113 99.7068 26.714C99.8095 26.8167 99.8608 26.9487 99.8608 27.11V28.012C100.213 27.5427 100.653 27.1833 101.181 26.934C101.723 26.6847 102.339 26.56 103.029 26.56H103.931C104.092 26.56 104.217 26.6113 104.305 26.714C104.407 26.802 104.459 26.9267 104.459 27.088V28.672C104.459 28.8187 104.407 28.9433 104.305 29.046C104.217 29.1487 104.092 29.2 103.931 29.2H102.215C101.525 29.2 100.983 29.398 100.587 29.794C100.191 30.19 99.9928 30.7327 99.9928 31.422V37.472C99.9928 37.6187 99.9415 37.7433 99.8388 37.846C99.7362 37.9487 99.6042 38 99.4428 38H97.5288ZM106.615 24.668C106.468 24.668 106.343 24.6167 106.241 24.514C106.138 24.4113 106.087 24.2867 106.087 24.14V22.556C106.087 22.4093 106.138 22.2847 106.241 22.182C106.343 22.0793 106.468 22.028 106.615 22.028H108.617C108.763 22.028 108.888 22.0793 108.991 22.182C109.108 22.2847 109.167 22.4093 109.167 22.556V24.14C109.167 24.2867 109.115 24.4113 109.013 24.514C108.91 24.6167 108.778 24.668 108.617 24.668H106.615ZM106.703 38C106.556 38 106.431 37.9487 106.329 37.846C106.226 37.7433 106.175 37.6187 106.175 37.472V27.088C106.175 26.9413 106.226 26.8167 106.329 26.714C106.431 26.6113 106.556 26.56 106.703 26.56H108.529C108.69 26.56 108.815 26.6113 108.903 26.714C109.005 26.802 109.057 26.9267 109.057 27.088V37.472C109.057 37.6187 109.005 37.7433 108.903 37.846C108.815 37.9487 108.69 38 108.529 38H106.703ZM118.311 38.22C116.801 38.22 115.627 37.6993 114.791 36.658V37.472C114.791 37.6187 114.74 37.7433 114.637 37.846C114.549 37.9487 114.425 38 114.263 38H112.525C112.379 38 112.254 37.9487 112.151 37.846C112.049 37.7433 111.997 37.6187 111.997 37.472V22.908C111.997 22.7467 112.049 22.622 112.151 22.534C112.254 22.4313 112.379 22.38 112.525 22.38H114.395C114.557 22.38 114.681 22.4313 114.769 22.534C114.872 22.622 114.923 22.7467 114.923 22.908V27.792C115.759 26.824 116.889 26.34 118.311 26.34C119.793 26.34 120.929 26.824 121.721 27.792C122.513 28.76 122.939 30.014 122.997 31.554C123.012 31.73 123.019 31.9647 123.019 32.258C123.019 32.566 123.012 32.808 122.997 32.984C122.939 34.568 122.513 35.8367 121.721 36.79C120.929 37.7433 119.793 38.22 118.311 38.22ZM117.497 35.866C119.081 35.866 119.925 34.8907 120.027 32.94C120.042 32.7933 120.049 32.5733 120.049 32.28C120.049 31.9867 120.042 31.7667 120.027 31.62C119.925 29.6693 119.081 28.694 117.497 28.694C116.676 28.694 116.045 28.958 115.605 29.486C115.18 29.9993 114.953 30.6227 114.923 31.356L114.901 32.192L114.923 33.05C114.967 33.842 115.195 34.5093 115.605 35.052C116.016 35.5947 116.647 35.866 117.497 35.866ZM130.396 38.22C128.768 38.22 127.47 37.7507 126.502 36.812C125.548 35.8587 125.042 34.524 124.984 32.808L124.962 32.258L124.984 31.708C125.057 30.036 125.57 28.7233 126.524 27.77C127.492 26.8167 128.782 26.34 130.396 26.34C132.126 26.34 133.461 26.868 134.4 27.924C135.353 28.98 135.83 30.388 135.83 32.148V32.61C135.83 32.7567 135.778 32.8813 135.676 32.984C135.573 33.0867 135.441 33.138 135.28 33.138H127.976V33.314C128.005 34.1207 128.225 34.8027 128.636 35.36C129.061 35.9027 129.64 36.174 130.374 36.174C131.239 36.174 131.936 35.8367 132.464 35.162C132.596 35.0007 132.698 34.898 132.772 34.854C132.86 34.81 132.984 34.788 133.146 34.788H135.038C135.17 34.788 135.28 34.832 135.368 34.92C135.47 34.9933 135.522 35.0887 135.522 35.206C135.522 35.558 135.309 35.976 134.884 36.46C134.473 36.9293 133.879 37.34 133.102 37.692C132.324 38.044 131.422 38.22 130.396 38.22ZM132.838 31.29V31.224C132.838 30.3587 132.618 29.662 132.178 29.134C131.752 28.606 131.158 28.342 130.396 28.342C129.633 28.342 129.039 28.606 128.614 29.134C128.188 29.662 127.976 30.3587 127.976 31.224V31.29H132.838Z" fill="white"/>
</svg>
